<svg width="48" height="48" viewBox="0 0 48 48" fill="none" xmlns="http://www.w3.org/2000/svg">
<circle cx="24" cy="24" r="24" fill="#CED7E0"/>
<path d="M27.3421 24.6384C28.2288 23.9446 28.876 22.9932 29.1937 21.9165C29.5114 20.8398 29.4837 19.6915 29.1146 18.6312C28.7455 17.5709 28.0532 16.6513 27.1341 16.0005C26.215 15.3497 25.1148 15 23.9866 15C22.8583 15 21.7581 15.3497 20.8391 16.0005C19.92 16.6513 19.2277 17.5709 18.8586 18.6312C18.4894 19.6915 18.4618 20.8398 18.7795 21.9165C19.0972 22.9932 19.7444 23.9446 20.6311 24.6384C19.1117 25.2438 17.786 26.2479 16.7953 27.5436C15.8045 28.8394 15.1859 30.3783 15.0055 31.9961C14.9924 32.1143 15.0028 32.2338 15.0362 32.3479C15.0696 32.462 15.1253 32.5684 15.2 32.6612C15.351 32.8484 15.5705 32.9683 15.8104 32.9946C16.0503 33.0208 16.2908 32.9512 16.4791 32.8011C16.6674 32.651 16.788 32.4326 16.8143 32.194C17.0129 30.4357 17.856 28.8118 19.1824 27.6326C20.5088 26.4533 22.2255 25.8014 24.0047 25.8014C25.7838 25.8014 27.5006 26.4533 28.827 27.6326C30.1534 28.8118 30.9964 30.4357 31.195 32.194C31.2196 32.4151 31.3256 32.6192 31.4927 32.767C31.6597 32.9149 31.8759 32.9959 32.0994 32.9946H32.1989C32.436 32.9674 32.6527 32.8482 32.8018 32.6629C32.9509 32.4776 33.0203 32.2411 32.9948 32.0051C32.8135 30.3827 32.1916 28.8399 31.1958 27.5421C30.2 26.2443 28.8678 25.2406 27.3421 24.6384ZM23.9866 23.9998C23.2711 23.9998 22.5716 23.7887 21.9767 23.3934C21.3817 22.9981 20.918 22.4361 20.6442 21.7787C20.3704 21.1213 20.2987 20.3978 20.4383 19.6999C20.5779 19.002 20.9225 18.3609 21.4284 17.8577C21.9344 17.3545 22.579 17.0119 23.2808 16.873C23.9826 16.7342 24.71 16.8055 25.371 17.0778C26.0321 17.3501 26.5971 17.8113 26.9947 18.4029C27.3922 18.9946 27.6044 19.6902 27.6044 20.4018C27.6044 21.3561 27.2232 22.2712 26.5447 22.9459C25.8663 23.6207 24.9461 23.9998 23.9866 23.9998Z" fill="white"/>
</svg>
