<svg width="22" height="22" viewBox="0 0 22 22" fill="none" xmlns="http://www.w3.org/2000/svg">
<g clip-path="url(#clip0)">
<path d="M10.428 3.47949C10.5358 3.26165 10.758 3.12354 11.0007 3.12354C11.2435 3.12354 11.466 3.26165 11.5735 3.47949L13.6277 7.6424C13.7206 7.8307 13.9007 7.96134 14.1089 7.99159L18.7029 8.65901C18.9439 8.6939 19.1432 8.86262 19.2183 9.09363C19.2934 9.32465 19.2308 9.5788 19.0567 9.74824L15.7328 12.9889C15.5822 13.1355 15.5135 13.347 15.5488 13.5541L16.3333 18.1299C16.3739 18.3699 16.276 18.6119 16.0788 18.755C15.8819 18.8974 15.6217 18.9162 15.406 18.8038L11.2969 16.6431C11.1111 16.5452 10.8886 16.5452 10.7024 16.6431L6.59327 18.8034C6.37827 18.9162 6.11735 18.8977 5.92051 18.755C5.72366 18.6123 5.62542 18.3699 5.66635 18.1299L6.45088 13.5541C6.48648 13.347 6.41742 13.1355 6.26685 12.9889L2.94293 9.74824C2.76887 9.57845 2.70622 9.32465 2.78133 9.09363C2.85644 8.86262 3.05613 8.6939 3.29711 8.65901L7.89179 7.99159C8.09967 7.96134 8.27979 7.8307 8.37269 7.64204L10.428 3.47949Z" fill="#FABD48"/>
</g>
<defs>
<clipPath id="clip0">
<rect width="16.5" height="16.5" fill="white" transform="translate(2.75 2.75)"/>
</clipPath>
</defs>
</svg>
