<svg width="36" height="36" viewBox="0 0 36 36" fill="none" xmlns="http://www.w3.org/2000/svg">
<g clip-path="url(#clip0)">
<path d="M17.064 5.69331C17.2405 5.33684 17.6039 5.11084 18.0012 5.11084C18.3984 5.11084 18.7625 5.33684 18.9384 5.69331L22.2999 12.5053C22.4519 12.8135 22.7466 13.0272 23.0874 13.0768L30.6048 14.1689C30.9991 14.226 31.3253 14.5021 31.4482 14.8801C31.5711 15.2581 31.4686 15.674 31.1837 15.9513L25.7446 21.2541C25.4982 21.4941 25.3858 21.8401 25.4435 22.1791L26.7272 29.6668C26.7936 30.0594 26.6335 30.4554 26.3108 30.6896C25.9887 30.9226 25.5629 30.9535 25.2099 30.7694L18.4858 27.2338C18.1818 27.0736 17.8177 27.0736 17.5131 27.2338L10.789 30.7688C10.4372 30.9535 10.0102 30.9232 9.68813 30.6896C9.36602 30.456 9.20525 30.0594 9.27224 29.6668L10.556 22.1791C10.6143 21.8401 10.5013 21.4941 10.2549 21.2541L4.81573 15.9513C4.5309 15.6734 4.42839 15.2581 4.55129 14.8801C4.67419 14.5021 5.00096 14.226 5.39529 14.1689L12.9139 13.0768C13.254 13.0272 13.5488 12.8135 13.7008 12.5048L17.064 5.69331Z" fill="url(#paint0_linear)"/>
</g>
<defs>
<linearGradient id="paint0_linear" x1="5.00012" y1="18" x2="32.0001" y2="18" gradientUnits="userSpaceOnUse">
<stop offset="0.484375" stop-color="#FABD48"/>
<stop offset="0.484475" stop-color="#CED7E0"/>
<stop offset="1" stop-color="#CED7E0"/>
</linearGradient>
<clipPath id="clip0">
<rect width="27" height="27" fill="white" transform="translate(4.5 4.5)"/>
</clipPath>
</defs>
</svg>
