<svg width="22" height="22" viewBox="0 0 22 22" fill="none" xmlns="http://www.w3.org/2000/svg">
<path d="M17.4167 1.8335H5.7475C5.10417 1.83371 4.48128 2.05946 3.9872 2.47147C3.49312 2.88349 3.15913 3.45568 3.04333 4.0885L1.87916 10.5052C1.80663 10.9016 1.8221 11.3091 1.92448 11.6988C2.02686 12.0886 2.21365 12.4511 2.47164 12.7607C2.72962 13.0703 3.0525 13.3193 3.41741 13.4903C3.78232 13.6613 4.18035 13.75 4.58333 13.7502H8.76333L8.25 15.061C8.03648 15.6349 7.96537 16.2521 8.04277 16.8596C8.12018 17.467 8.34378 18.0466 8.69441 18.5487C9.04504 19.0508 9.51222 19.4603 10.0559 19.7421C10.5995 20.0239 11.2035 20.1697 11.8158 20.1668C11.9922 20.1665 12.1646 20.1152 12.3126 20.0193C12.4606 19.9234 12.5777 19.7868 12.65 19.626L15.2625 13.7502H17.4167C18.146 13.7502 18.8455 13.4604 19.3612 12.9447C19.8769 12.429 20.1667 11.7295 20.1667 11.0002V4.5835C20.1667 3.85415 19.8769 3.15468 19.3612 2.63895C18.8455 2.12323 18.146 1.8335 17.4167 1.8335ZM13.75 12.641L11.2567 18.251C11.0015 18.1738 10.7649 18.0452 10.5614 17.8731C10.3579 17.701 10.1917 17.4891 10.0732 17.2503C9.95472 17.0116 9.88634 16.7511 9.87232 16.4849C9.85829 16.2188 9.8989 15.9525 9.99166 15.7027L10.4775 14.3918C10.581 14.1148 10.616 13.8168 10.5794 13.5233C10.5428 13.2298 10.4357 12.9495 10.2673 12.7063C10.0989 12.4632 9.87414 12.2644 9.61225 12.1269C9.35037 11.9894 9.05911 11.9173 8.76333 11.9168H4.58333C4.44866 11.917 4.3156 11.8876 4.19361 11.8306C4.07161 11.7735 3.96369 11.6903 3.8775 11.5868C3.78919 11.4848 3.72451 11.3645 3.68806 11.2346C3.65162 11.1046 3.64431 10.9682 3.66666 10.8352L4.83083 4.4185C4.86988 4.20495 4.98344 4.01219 5.15131 3.87455C5.31917 3.7369 5.53044 3.66329 5.7475 3.66683H13.75V12.641ZM18.3333 11.0002C18.3333 11.2433 18.2368 11.4764 18.0648 11.6483C17.8929 11.8203 17.6598 11.9168 17.4167 11.9168H15.5833V3.66683H17.4167C17.6598 3.66683 17.8929 3.76341 18.0648 3.93531C18.2368 4.10722 18.3333 4.34038 18.3333 4.5835V11.0002Z" fill="#87919C"/>
</svg>
