<svg width="22" height="22" viewBox="0 0 22 22" fill="none" xmlns="http://www.w3.org/2000/svg">
<path d="M19.525 9.2402C19.2674 8.93096 18.9451 8.68203 18.5808 8.51097C18.2165 8.33991 17.8191 8.25089 17.4167 8.2502H13.2367L13.75 6.93937C13.9635 6.36543 14.0346 5.74826 13.9572 5.1408C13.8798 4.53334 13.6562 3.95372 13.3056 3.45166C12.955 2.94961 12.4878 2.5401 11.9441 2.25827C11.4004 1.97644 10.7965 1.83069 10.1842 1.83354C10.0078 1.8339 9.83535 1.88512 9.6874 1.98105C9.53944 2.07698 9.4223 2.21354 9.35 2.37437L6.7375 8.2502H4.58333C3.85399 8.2502 3.15451 8.53994 2.63879 9.05566C2.12306 9.57138 1.83333 10.2709 1.83333 11.0002V17.4169C1.83333 18.1462 2.12306 18.8457 2.63879 19.3614C3.15451 19.8771 3.85399 20.1669 4.58333 20.1669H16.2525C16.8958 20.1667 17.5187 19.9409 18.0128 19.5289C18.5069 19.1169 18.8409 18.5447 18.9567 17.9119L20.1208 11.4952C20.1928 11.0986 20.1768 10.6911 20.0738 10.3014C19.9709 9.91173 19.7835 9.54944 19.525 9.2402ZM6.41667 18.3335H4.58333C4.34022 18.3335 4.10706 18.237 3.93515 18.0651C3.76324 17.8931 3.66667 17.66 3.66667 17.4169V11.0002C3.66667 10.7571 3.76324 10.5239 3.93515 10.352C4.10706 10.1801 4.34022 10.0835 4.58333 10.0835H6.41667V18.3335ZM18.3333 11.1652L17.1692 17.5819C17.1301 17.7954 17.0166 17.9882 16.8487 18.1258C16.6808 18.2635 16.4696 18.3371 16.2525 18.3335H8.25V9.35937L10.7433 3.74937C11 3.82419 11.2383 3.95141 11.4434 4.12299C11.6484 4.29457 11.8156 4.50678 11.9344 4.74624C12.0533 4.9857 12.1213 5.24719 12.134 5.51423C12.1467 5.78126 12.1039 6.04803 12.0083 6.2977L11.5225 7.60854C11.419 7.8856 11.384 8.18361 11.4206 8.47711C11.4572 8.77061 11.5643 9.0509 11.7327 9.29405C11.9011 9.5372 12.1259 9.736 12.3877 9.87347C12.6496 10.0109 12.9409 10.083 13.2367 10.0835H17.4167C17.5513 10.0833 17.6844 10.1128 17.8064 10.1698C17.9284 10.2268 18.0363 10.3101 18.1225 10.4135C18.2108 10.5156 18.2755 10.6359 18.3119 10.7658C18.3484 10.8957 18.3557 11.0321 18.3333 11.1652Z" fill="#87919C"/>
</svg>
