<svg width="22" height="22" viewBox="0 0 22 22" fill="none" xmlns="http://www.w3.org/2000/svg">
<path d="M11 7.43535C11.282 7.43535 11.5577 7.35172 11.7922 7.19504C12.0267 7.03835 12.2095 6.81565 12.3174 6.5551C12.4253 6.29455 12.4535 6.00784 12.3985 5.73124C12.3435 5.45464 12.2077 5.20056 12.0083 5.00114C11.8089 4.80172 11.5548 4.66592 11.2782 4.6109C11.0016 4.55588 10.7149 4.58411 10.4543 4.69204C10.1938 4.79996 9.97107 4.98273 9.81439 5.21722C9.6577 5.45171 9.57407 5.7274 9.57407 6.00942C9.57407 6.3876 9.72431 6.75029 9.99172 7.0177C10.2591 7.28512 10.6218 7.43535 11 7.43535ZM11 14.565C10.718 14.565 10.4423 14.6486 10.2078 14.8053C9.97331 14.962 9.79054 15.1847 9.68262 15.4452C9.57469 15.7058 9.54645 15.9925 9.60147 16.2691C9.65649 16.5457 9.7923 16.7998 9.99172 16.9992C10.1911 17.1986 10.4452 17.3344 10.7218 17.3894C10.9984 17.4444 11.2851 17.4162 11.5457 17.3083C11.8062 17.2004 12.0289 17.0176 12.1856 16.7831C12.3423 16.5486 12.4259 16.2729 12.4259 15.9909C12.4259 15.6127 12.2757 15.25 12.0083 14.9826C11.7409 14.7152 11.3782 14.565 11 14.565ZM11 9.57424C10.718 9.57424 10.4423 9.65787 10.2078 9.81455C9.97331 9.97123 9.79054 10.1939 9.68262 10.4545C9.57469 10.715 9.54645 11.0017 9.60147 11.2783C9.65649 11.5549 9.7923 11.809 9.99172 12.0084C10.1911 12.2079 10.4452 12.3437 10.7218 12.3987C10.9984 12.4537 11.2851 12.4255 11.5457 12.3175C11.8062 12.2096 12.0289 12.0269 12.1856 11.7924C12.3423 11.5579 12.4259 11.2822 12.4259 11.0002C12.4259 10.622 12.2757 10.2593 12.0083 9.99188C11.7409 9.72447 11.3782 9.57424 11 9.57424Z" fill="#87919C"/>
</svg>
