<svg width="18" height="18" viewBox="0 0 18 18" fill="none" xmlns="http://www.w3.org/2000/svg">
<g clip-path="url(#clip0)">
<path d="M8.42798 1.47925C8.53584 1.2614 8.75795 1.12329 9.00072 1.12329C9.24348 1.12329 9.46595 1.2614 9.57345 1.47925L11.6277 5.64216C11.7206 5.83046 11.9007 5.96109 12.1089 5.99135L16.7029 6.65877C16.9439 6.69365 17.1432 6.86237 17.2183 7.09339C17.2934 7.32441 17.2308 7.57856 17.0567 7.74799L13.7328 10.9886C13.5822 11.1353 13.5135 11.3467 13.5488 11.5539L14.3333 16.1297C14.3739 16.3696 14.276 16.6117 14.0788 16.7548C13.8819 16.8971 13.6217 16.916 13.406 16.8035L9.29687 14.6429C9.11106 14.545 8.88859 14.545 8.70243 14.6429L4.59327 16.8032C4.37827 16.916 4.11735 16.8975 3.92051 16.7548C3.72366 16.612 3.62542 16.3696 3.66635 16.1297L4.45088 11.5539C4.48648 11.3467 4.41742 11.1353 4.26685 10.9886L0.942933 7.74799C0.76887 7.5782 0.706222 7.32441 0.781329 7.09339C0.856436 6.86237 1.05613 6.69365 1.29711 6.65877L5.89179 5.99135C6.09967 5.96109 6.27979 5.83046 6.37269 5.6418L8.42798 1.47925Z" fill="#FABD48"/>
</g>
<defs>
<clipPath id="clip0">
<rect width="16.5" height="16.5" fill="white" transform="translate(0.75 0.75)"/>
</clipPath>
</defs>
</svg>
