<svg width="4" height="14" viewBox="0 0 4 14" fill="none" xmlns="http://www.w3.org/2000/svg">
<path d="M2 3.43535C2.28202 3.43535 2.55771 3.35172 2.7922 3.19504C3.02669 3.03835 3.20946 2.81565 3.31738 2.5551C3.42531 2.29455 3.45355 2.00784 3.39853 1.73124C3.34351 1.45464 3.2077 1.20056 3.00828 1.00114C2.80886 0.801721 2.55479 0.665915 2.27818 0.610895C2.00158 0.555876 1.71488 0.584114 1.45432 0.692039C1.19377 0.799964 0.971069 0.982728 0.814386 1.21722C0.657704 1.45171 0.574075 1.7274 0.574075 2.00942C0.574075 2.3876 0.724306 2.75029 0.991719 3.0177C1.25913 3.28512 1.62182 3.43535 2 3.43535ZM2 10.565C1.71798 10.565 1.44229 10.6486 1.2078 10.8053C0.973306 10.962 0.790541 11.1847 0.682617 11.4452C0.574692 11.7058 0.546454 11.9925 0.601473 12.2691C0.656493 12.5457 0.792299 12.7998 0.991719 12.9992C1.19114 13.1986 1.44521 13.3344 1.72182 13.3894C1.99842 13.4444 2.28512 13.4162 2.54568 13.3083C2.80623 13.2004 3.02893 13.0176 3.18561 12.7831C3.3423 12.5486 3.42593 12.2729 3.42593 11.9909C3.42593 11.6127 3.27569 11.25 3.00828 10.9826C2.74087 10.7152 2.37818 10.565 2 10.565ZM2 5.57424C1.71798 5.57424 1.44229 5.65787 1.2078 5.81455C0.973306 5.97123 0.790541 6.19393 0.682617 6.45448C0.574692 6.71504 0.546454 7.00174 0.601473 7.27835C0.656493 7.55495 0.792299 7.80902 0.991719 8.00844C1.19114 8.20786 1.44521 8.34367 1.72182 8.39869C1.99842 8.45371 2.28512 8.42547 2.54568 8.31755C2.80623 8.20962 3.02893 8.02686 3.18561 7.79236C3.3423 7.55787 3.42593 7.28218 3.42593 7.00016C3.42593 6.62198 3.27569 6.25929 3.00828 5.99188C2.74087 5.72447 2.37818 5.57424 2 5.57424Z" fill="#87919C"/>
</svg>
